<mxfile host="app.diagrams.net" modified="2023-10-19T06:35:11.327Z" agent="Mozilla/5.0 (Windows NT 10.0; Win64; x64) AppleWebKit/537.36 (KHTML, like Gecko) Chrome/118.0.0.0 Safari/537.36" etag="FNxB-a6lhLYq5jX1n616" version="22.0.4" type="github">
  <diagram id="C5RBs43oDa-KdzZeNtuy" name="Page-1">
    <mxGraphModel dx="1050" dy="662" grid="1" gridSize="10" guides="1" tooltips="1" connect="1" arrows="1" fold="1" page="1" pageScale="1" pageWidth="827" pageHeight="1169" math="0" shadow="0">
      <root>
        <mxCell id="WIyWlLk6GJQsqaUBKTNV-0" />
        <mxCell id="WIyWlLk6GJQsqaUBKTNV-1" parent="WIyWlLk6GJQsqaUBKTNV-0" />
        <mxCell id="ksU9ERUlS4TnuYSIllpk-9" value="" style="edgeStyle=orthogonalEdgeStyle;rounded=0;orthogonalLoop=1;jettySize=auto;html=1;" edge="1" parent="WIyWlLk6GJQsqaUBKTNV-1" source="ksU9ERUlS4TnuYSIllpk-4" target="ksU9ERUlS4TnuYSIllpk-8">
          <mxGeometry relative="1" as="geometry" />
        </mxCell>
        <mxCell id="ksU9ERUlS4TnuYSIllpk-4" value="Print(&quot;Select Coffe&quot;)" style="rounded=0;whiteSpace=wrap;html=1;" vertex="1" parent="WIyWlLk6GJQsqaUBKTNV-1">
          <mxGeometry x="244.5" y="20" width="119" height="40" as="geometry" />
        </mxCell>
        <mxCell id="ksU9ERUlS4TnuYSIllpk-15" value="True" style="edgeStyle=orthogonalEdgeStyle;rounded=0;orthogonalLoop=1;jettySize=auto;html=1;entryX=0.5;entryY=0;entryDx=0;entryDy=0;" edge="1" parent="WIyWlLk6GJQsqaUBKTNV-1" source="ksU9ERUlS4TnuYSIllpk-8" target="ksU9ERUlS4TnuYSIllpk-17">
          <mxGeometry relative="1" as="geometry">
            <mxPoint x="450" y="200" as="targetPoint" />
          </mxGeometry>
        </mxCell>
        <mxCell id="ksU9ERUlS4TnuYSIllpk-16" value="False" style="edgeStyle=orthogonalEdgeStyle;rounded=0;orthogonalLoop=1;jettySize=auto;html=1;entryX=0.5;entryY=0;entryDx=0;entryDy=0;" edge="1" parent="WIyWlLk6GJQsqaUBKTNV-1" source="ksU9ERUlS4TnuYSIllpk-8" target="ksU9ERUlS4TnuYSIllpk-20">
          <mxGeometry relative="1" as="geometry">
            <mxPoint x="135" y="200" as="targetPoint" />
          </mxGeometry>
        </mxCell>
        <mxCell id="ksU9ERUlS4TnuYSIllpk-8" value="Check resource" style="rhombus;whiteSpace=wrap;html=1;" vertex="1" parent="WIyWlLk6GJQsqaUBKTNV-1">
          <mxGeometry x="234" y="110" width="140" height="70" as="geometry" />
        </mxCell>
        <mxCell id="ksU9ERUlS4TnuYSIllpk-24" value="False" style="edgeStyle=orthogonalEdgeStyle;rounded=0;orthogonalLoop=1;jettySize=auto;html=1;entryX=0.5;entryY=0;entryDx=0;entryDy=0;" edge="1" parent="WIyWlLk6GJQsqaUBKTNV-1" source="ksU9ERUlS4TnuYSIllpk-17" target="ksU9ERUlS4TnuYSIllpk-27">
          <mxGeometry relative="1" as="geometry">
            <mxPoint x="600" y="290" as="targetPoint" />
          </mxGeometry>
        </mxCell>
        <mxCell id="ksU9ERUlS4TnuYSIllpk-30" value="True" style="edgeStyle=orthogonalEdgeStyle;rounded=0;orthogonalLoop=1;jettySize=auto;html=1;entryX=0.5;entryY=0;entryDx=0;entryDy=0;" edge="1" parent="WIyWlLk6GJQsqaUBKTNV-1" source="ksU9ERUlS4TnuYSIllpk-17" target="ksU9ERUlS4TnuYSIllpk-29">
          <mxGeometry relative="1" as="geometry" />
        </mxCell>
        <mxCell id="ksU9ERUlS4TnuYSIllpk-17" value="print(&quot;InserCoin&quot;)" style="rhombus;whiteSpace=wrap;html=1;" vertex="1" parent="WIyWlLk6GJQsqaUBKTNV-1">
          <mxGeometry x="380" y="200" width="150" height="80" as="geometry" />
        </mxCell>
        <mxCell id="ksU9ERUlS4TnuYSIllpk-20" value="print(&quot;Not enough {...}}" style="ellipse;whiteSpace=wrap;html=1;" vertex="1" parent="WIyWlLk6GJQsqaUBKTNV-1">
          <mxGeometry x="80" y="200" width="150" height="80" as="geometry" />
        </mxCell>
        <mxCell id="ksU9ERUlS4TnuYSIllpk-25" style="edgeStyle=orthogonalEdgeStyle;rounded=0;orthogonalLoop=1;jettySize=auto;html=1;entryX=1;entryY=0.5;entryDx=0;entryDy=0;exitX=1;exitY=0.5;exitDx=0;exitDy=0;" edge="1" parent="WIyWlLk6GJQsqaUBKTNV-1" source="ksU9ERUlS4TnuYSIllpk-27" target="ksU9ERUlS4TnuYSIllpk-4">
          <mxGeometry relative="1" as="geometry">
            <mxPoint x="640" y="330" as="sourcePoint" />
            <Array as="points">
              <mxPoint x="710" y="320" />
              <mxPoint x="710" y="40" />
            </Array>
          </mxGeometry>
        </mxCell>
        <mxCell id="ksU9ERUlS4TnuYSIllpk-27" value="print(&quot;&quot;not enough coin)" style="rounded=0;whiteSpace=wrap;html=1;" vertex="1" parent="WIyWlLk6GJQsqaUBKTNV-1">
          <mxGeometry x="550" y="290" width="120" height="60" as="geometry" />
        </mxCell>
        <mxCell id="ksU9ERUlS4TnuYSIllpk-47" value="False" style="edgeStyle=orthogonalEdgeStyle;rounded=0;orthogonalLoop=1;jettySize=auto;html=1;" edge="1" parent="WIyWlLk6GJQsqaUBKTNV-1" source="ksU9ERUlS4TnuYSIllpk-29" target="ksU9ERUlS4TnuYSIllpk-46">
          <mxGeometry relative="1" as="geometry" />
        </mxCell>
        <mxCell id="ksU9ERUlS4TnuYSIllpk-49" value="" style="edgeStyle=orthogonalEdgeStyle;rounded=0;orthogonalLoop=1;jettySize=auto;html=1;" edge="1" parent="WIyWlLk6GJQsqaUBKTNV-1" source="ksU9ERUlS4TnuYSIllpk-29" target="ksU9ERUlS4TnuYSIllpk-48">
          <mxGeometry relative="1" as="geometry" />
        </mxCell>
        <mxCell id="ksU9ERUlS4TnuYSIllpk-29" value="check cash back" style="rhombus;whiteSpace=wrap;html=1;" vertex="1" parent="WIyWlLk6GJQsqaUBKTNV-1">
          <mxGeometry x="239" y="290" width="130" height="80" as="geometry" />
        </mxCell>
        <mxCell id="ksU9ERUlS4TnuYSIllpk-46" value="Error &amp;amp; ShutDown" style="ellipse;whiteSpace=wrap;html=1;" vertex="1" parent="WIyWlLk6GJQsqaUBKTNV-1">
          <mxGeometry x="390" y="380" width="130" height="80" as="geometry" />
        </mxCell>
        <mxCell id="ksU9ERUlS4TnuYSIllpk-50" style="edgeStyle=orthogonalEdgeStyle;rounded=0;orthogonalLoop=1;jettySize=auto;html=1;entryX=0;entryY=0.5;entryDx=0;entryDy=0;" edge="1" parent="WIyWlLk6GJQsqaUBKTNV-1" source="ksU9ERUlS4TnuYSIllpk-48" target="ksU9ERUlS4TnuYSIllpk-4">
          <mxGeometry relative="1" as="geometry">
            <Array as="points">
              <mxPoint x="30" y="410" />
              <mxPoint x="30" y="40" />
            </Array>
          </mxGeometry>
        </mxCell>
        <mxCell id="ksU9ERUlS4TnuYSIllpk-48" value="Report" style="whiteSpace=wrap;html=1;" vertex="1" parent="WIyWlLk6GJQsqaUBKTNV-1">
          <mxGeometry x="95" y="380" width="120" height="60" as="geometry" />
        </mxCell>
      </root>
    </mxGraphModel>
  </diagram>
</mxfile>
